<svg width="134" height="134" viewBox="0 0 134 134" fill="none" xmlns="http://www.w3.org/2000/svg">

  <circle cx="67" cy="67" r="67" fill="#DFF8EF" fill-opacity="1"/>
  
<circle cx="67" cy="67" r="52" fill="#3FD9A4"/>
<path d="M86.1383 66.09L85.6157 66.0027C79.7262 65.019 73.6778 66.1058 68.4993 69.0784C68.4991 69.0785 68.499 69.0786 68.4988 69.0787M86.1383 66.09L68.3743 68.8619L68.4988 69.0787M86.1383 66.09L85.8734 65.6311L75.2012 47.1464L74.9363 46.6875L74.7506 47.1838C72.6579 52.7765 68.6925 57.4716 63.5288 60.4704L57.3979 64.0101L57.1814 64.1351L57.3064 64.3516L62.0264 72.5269L62.1514 72.7434L62.3679 72.6184L68.4988 69.0787M86.1383 66.09L68.4988 69.0787M71.0976 40.0388L71.0976 40.0387C70.9589 39.7988 70.8688 39.5339 70.8326 39.2592C70.7963 38.9844 70.8146 38.7052 70.8863 38.4376C70.958 38.1699 71.0818 37.919 71.2506 37.6992C71.4193 37.4794 71.6298 37.295 71.8698 37.1566L71.7449 36.94L71.8701 37.1564C72.11 37.0177 72.3749 36.9277 72.6496 36.8914C72.9243 36.8552 73.2035 36.8734 73.4712 36.9452C73.7389 37.0169 73.9898 37.1407 74.2096 37.3094C74.4294 37.4782 74.6138 37.6886 74.7522 37.9287L74.7523 37.9288L93.6323 70.6299C93.9121 71.1146 93.9879 71.6905 93.843 72.231C93.6982 72.7716 93.3446 73.2324 92.8599 73.5122C92.3753 73.7921 91.7994 73.8679 91.2588 73.723C90.7183 73.5782 90.2574 73.2246 89.9776 72.7399L89.2261 71.4382L89.1818 71.3615L89.0992 71.3298C86.349 70.2728 83.4114 69.7909 80.4676 69.9137C77.5239 70.0365 74.6366 70.7615 71.984 72.0439L71.8234 72.1215L71.8445 72.2985L73.7772 88.5022L73.7773 88.5025C73.8267 88.9125 73.7546 89.328 73.5698 89.6973C73.3851 90.0667 73.0958 90.3735 72.738 90.5798L72.7379 90.5799L64.5626 95.2999L64.5625 95.3C64.2602 95.4748 63.9193 95.5718 63.5703 95.5822C63.2213 95.5927 62.8752 95.5164 62.563 95.36C62.2508 95.2037 61.9823 94.9723 61.7816 94.6866C61.581 94.4008 61.4544 94.0698 61.4133 93.723L61.4133 93.7229L59.7085 79.4292L59.6636 79.0527L59.3352 79.2423L58.3467 79.813C56.7774 80.7168 54.9137 80.9611 53.1646 80.4924C51.4154 80.0237 49.9236 78.8803 49.0164 77.3131L46.6566 73.2257C45.7529 71.6564 45.5086 69.7928 45.9773 68.0437C46.446 66.2945 47.5894 64.8026 49.1567 63.8955L61.4194 56.8156L61.4202 56.8151C64.1921 55.201 66.5693 52.9891 68.3786 50.3404C70.1879 47.6917 71.3839 44.6729 71.8795 41.5038L71.8931 41.4166L71.849 41.3402L71.0976 40.0388ZM56.2363 76.1586L56.2365 76.1585L58.2803 74.9785L58.4968 74.8535L58.3718 74.637L53.6518 66.4617L53.5268 66.2452L53.3103 66.3702L51.2665 67.5502L51.2663 67.5503C50.6672 67.8967 50.2301 68.4668 50.051 69.1352C49.8719 69.8037 49.9654 70.5159 50.311 71.1154L50.3111 71.1156L52.6711 75.2032L52.6712 75.2033C53.0176 75.8024 53.5877 76.2395 54.2561 76.4186C54.9246 76.5977 55.6368 76.5042 56.2363 76.1586ZM69.2807 87.7031L69.4234 87.6207L69.4039 87.457L67.883 74.7096L67.838 74.3332L67.5097 74.5227L63.7813 76.6753L63.6386 76.7577L63.6581 76.9214L65.1791 89.6688L65.224 90.0452L65.5523 89.8557L69.2807 87.7031Z" fill="#fff" stroke="#fff" stroke-width="0.5"/>
</svg>
